<svg xmlns="http://www.w3.org/2000/svg" xmlns:xlink="http://www.w3.org/1999/xlink" viewBox="0 0 1030.45 397.48"><defs><style>.cls-1{fill:url(#Dégradé_sans_nom_60);}.cls-2{fill:#fff;}.cls-3{fill:url(#Dégradé_sans_nom_15);}.cls-4{fill:url(#Dégradé_sans_nom_45);}.cls-5{fill:url(#Dégradé_sans_nom_75);}</style><linearGradient id="Dégradé_sans_nom_60" x1="57.02" y1="69.33" x2="163.14" y2="69.33" gradientUnits="userSpaceOnUse"><stop offset="0" stop-color="#bebebe"/><stop offset="0.07" stop-color="#c7c7c7"/><stop offset="0.19" stop-color="#e1e1e1"/><stop offset="0.2" stop-color="#e3e3e3"/><stop offset="0.5" stop-color="#fff"/><stop offset="0.8" stop-color="#e3e3e3"/><stop offset="1" stop-color="#bebebe"/></linearGradient><linearGradient id="Dégradé_sans_nom_15" x1="285.27" y1="200.07" x2="434.93" y2="200.07" xlink:href="#Dégradé_sans_nom_60"/><linearGradient id="Dégradé_sans_nom_45" x1="535.52" y1="111.6" x2="657.02" y2="114.6" xlink:href="#Dégradé_sans_nom_60"/><linearGradient id="Dégradé_sans_nom_75" x1="689.6" y1="109.41" x2="790.09" y2="109.41" xlink:href="#Dégradé_sans_nom_60"/></defs><title>Plan de travail 1</title><g id="M"><path class="cls-1" d="M57.52,21.15h0l48.64,51.39a5.84,5.84,0,0,0,8.49,0l48.49-51.38V66l-44.69,48.29a10,10,0,0,1-14.44.17L57,66Z"/><path class="cls-2" d="M65.14,29.21l-7.62-8.05H30.87a7,7,0,0,0-7,7V193A7.12,7.12,0,0,0,31,200.11h19.2a7.23,7.23,0,0,0,7.24-7.24c0-22.14-.07-89.69,0-126.84C57.52,21.15,65.14,29.21,65.14,29.21Z"/><path class="cls-2" d="M170.29,200.11h19.37a7.05,7.05,0,0,0,7.05-7.05V28.27a7.11,7.11,0,0,0-7.11-7.11H163.14l-8.4,8.9s8.4-8.63,8.4,36V193A7.15,7.15,0,0,0,170.29,200.11Z"/></g><g id="N"><polygon class="cls-3" points="288.44 21.11 285.27 21.11 285.27 145.62 429.56 379.02 434.93 379.02 434.93 260.13 288.44 21.11"/><path class="cls-2" d="M218.13,31.26V368.58A10.44,10.44,0,0,0,228.57,379h46.58a10.12,10.12,0,0,0,10.12-10.12V145.62c0-124.51,22.52-93,22.52-93L288.44,21.11H228.28A10.15,10.15,0,0,0,218.13,31.26Z"/><path class="cls-2" d="M444.93,21.11a10,10,0,0,0-10,10v229c0,124.4-30.21,78.71-30.21,78.71L429.55,379H491.8a10.27,10.27,0,0,0,10.27-10.27V31.34a10.23,10.23,0,0,0-10.23-10.23Z"/></g><g id="S"><path class="cls-4" d="M518.64,144.17l35.16-3.42q3.17,17.7,12.88,26t26.18,8.3q17.46,0,26.31-7.38T628,150.4a16.3,16.3,0,0,0-3.72-10.8q-3.73-4.45-13-7.75-6.35-2.2-28.93-7.81-29.05-7.2-40.77-17.7-16.48-14.77-16.48-36a46,46,0,0,1,7.75-25.57q7.75-11.9,22.34-18.13t35.22-6.23q33.69,0,50.72,14.77T659,74.59l-36.13,1.59q-2.32-13.79-9.95-19.84T590,50.3q-15.75,0-24.66,6.47a13,13,0,0,0-5.74,11.11A13.74,13.74,0,0,0,565,78.74q6.83,5.74,33.2,12t39,12.88A50.29,50.29,0,0,1,657,121.77q7.14,11.54,7.14,28.5a52.71,52.71,0,0,1-8.54,28.81,51.2,51.2,0,0,1-24.17,20q-15.63,6.53-38.94,6.53-33.94,0-52.12-15.69T518.64,144.17Z"/><path class="cls-2" d="M622.89,76.18,659,74.59s3.17-55-68.6-54.2-65.21,53.15-65.21,53.15c1.48,42.15,53.83,49.74,53.83,49.74-33-18.6-54-73.26,13.07-73C621,51,622.89,76.18,622.89,76.18Z"/><path class="cls-2" d="M553.79,140.75l-35.16,3.42s0,63.19,73.85,61.4c94.53,0,76.2-85.55,55.9-94.21C659,149.69,648.52,172.53,594,175,555.52,175,553.79,140.75,553.79,140.75Z"/></g><g id="_2" data-name="2"><path class="cls-5" d="M790.87,168,792,198.36l-110.17-2c1.3-12,1.18-19.67,7.69-30.45s19.37-25.09,38.57-42.91q23.19-21.61,28.44-29.3,7.08-10.62,7.08-21,0-11.47-6.16-17.64t-17-6.16q-10.74,0-17.09,6.47T716,76.86l-34.18-3.42q3-28.32,19.17-40.65T741.3,20.46q26.49,0,41.63,14.28t15.14,35.52a61.84,61.84,0,0,1-4.33,23A93.56,93.56,0,0,1,780,116.17q-6.23,7.94-22.46,22.83T737,158.77a59.16,59.16,0,0,0-7,9.52Z"/><path class="cls-2" d="M798.06,193.07V175.21a7.19,7.19,0,0,0-7.19-7.19s-62.52,41.33-89.52-18.33C690.69,161.69,688.3,168,688.3,168s-6.61,11.9-9.33,23.44a7.07,7.07,0,0,0,6.89,8.68H791A7.08,7.08,0,0,0,798.06,193.07Z"/><path class="cls-2" d="M742.09,49c34.51,2.43,39.93,52.75,33,72.82,0,0,23-20.33,23-51.58,0,0,3-47.11-54.54-50.24-61.67-1.25-61.67,53.41-61.67,53.41L716,76.86S714.52,49.54,742.09,49Z"/></g><g id="Nutrition"><path class="cls-2" d="M571.57,375.43V363.78a30,30,0,0,1-11.17,9.81,31.31,31.31,0,0,1-14.61,3.59,28.56,28.56,0,0,1-14.06-3.44,20.31,20.31,0,0,1-9-9.67q-2.78-6.22-2.78-17.21V297.64h20.58v35.74q0,16.41,1.14,20.1a11,11,0,0,0,4.14,5.86,12.72,12.72,0,0,0,7.62,2.16,16.19,16.19,0,0,0,9.45-2.89,14.72,14.72,0,0,0,5.71-7.18q1.54-4.28,1.54-21V297.64h20.58v77.78Z"/><path class="cls-2" d="M647.67,297.64V314H633.6V345.4q0,9.52.4,11.1a4.51,4.51,0,0,0,1.83,2.6,5.79,5.79,0,0,0,3.48,1,26.62,26.62,0,0,0,8.28-2l1.76,16a40.92,40.92,0,0,1-16.26,3.08,25.79,25.79,0,0,1-10-1.87,14.64,14.64,0,0,1-6.55-4.83,19.08,19.08,0,0,1-2.89-8q-.66-3.59-.66-14.5V314H603.5V297.64h9.45V282.19l20.65-12v27.47Z"/><path class="cls-2" d="M681.65,375.43H661.07V297.64h19.12V308.7q4.91-7.84,8.83-10.33a16.24,16.24,0,0,1,8.9-2.49,26.13,26.13,0,0,1,13.55,3.88l-6.37,17.94q-5.2-3.37-9.67-3.37a11.43,11.43,0,0,0-7.32,2.38q-3,2.38-4.72,8.61t-1.72,26.07Z"/><path class="cls-2" d="M720.32,287.09v-19H740.9v19Zm0,88.33V297.64H740.9v77.78Z"/><path class="cls-2" d="M797.67,297.64V314H783.6V345.4q0,9.52.4,11.1a4.51,4.51,0,0,0,1.83,2.6,5.79,5.79,0,0,0,3.48,1,26.62,26.62,0,0,0,8.28-2l1.76,16a40.92,40.92,0,0,1-16.26,3.08,25.79,25.79,0,0,1-10-1.87,14.64,14.64,0,0,1-6.55-4.83,19.07,19.07,0,0,1-2.89-8q-.66-3.59-.66-14.5V314H753.5V297.64h9.45V282.19l20.65-12v27.47Z"/><path class="cls-2" d="M811.95,287.09v-19h20.58v19Zm0,88.33V297.64h20.58v77.78Z"/><path class="cls-2" d="M848.86,335.44a42.09,42.09,0,0,1,5.05-19.85,34.69,34.69,0,0,1,14.32-14.65,42.49,42.49,0,0,1,20.69-5.05q17.65,0,28.93,11.46t11.28,29q0,17.65-11.39,29.26t-28.67,11.61a45.16,45.16,0,0,1-20.4-4.83,33.16,33.16,0,0,1-14.76-14.17Q848.86,348.84,848.86,335.44Zm21.09,1.1q0,11.58,5.49,17.72a18,18,0,0,0,27.06,0q5.46-6.15,5.46-17.87,0-11.43-5.46-17.58a18,18,0,0,0-27.06,0Q870,325,870,336.53Z"/><path class="cls-2" d="M1016,375.43H995.42v-39.7q0-12.6-1.32-16.3a11.43,11.43,0,0,0-4.29-5.75,12.26,12.26,0,0,0-7.14-2.05,16.51,16.51,0,0,0-9.59,2.93,14.77,14.77,0,0,0-5.82,7.76q-1.57,4.83-1.57,17.87v35.23H945.1V297.64h19.12v11.43q10.18-13.18,25.63-13.18a30.89,30.89,0,0,1,12.45,2.45,20.9,20.9,0,0,1,8.53,6.26,22.7,22.7,0,0,1,4,8.64,64.29,64.29,0,0,1,1.14,13.84Z"/></g></svg>